<svg width="101" height="111" viewBox="0 0 101 111" fill="none" xmlns="http://www.w3.org/2000/svg">
<mask id="mask0_2255_53" style="mask-type:luminance" maskUnits="userSpaceOnUse" x="23" y="0" width="53" height="111">
<path d="M23.9453 0H75.9453V110.302H23.9453V0Z" fill="white"/>
</mask>
<g mask="url(#mask0_2255_53)">
<path d="M49.4505 0L52.3568 0.578125L63.9922 7.54688L75.0495 14.5208L75.6276 15.099V22.651L61.0859 29.6198H59.9193L59.3411 21.4896L51.7734 16.2604L48.2839 16.8438L40.7214 21.4896V87.6927L48.8672 92.9219H51.7734L59.3411 87.6927V74.9167L51.7734 78.9844L47.7005 78.401L45.9557 77.2396V62.1406L49.4505 63.3021L52.3568 62.724L72.7214 52.2708L75.6276 51.1042V93.5052L59.3411 103.375L50.0286 109.182L45.3776 106.859L31.4141 98.151L25.013 94.0833L24.4297 93.5052V14.5208L39.5599 5.80729L49.4505 0Z" fill="#00FFFF"/>
</g>
<path d="M84.9414 23.2266L91.3372 26.7109L100.066 31.9401V79.5599L86.1029 87.6901H85.5195V39.487L72.1393 46.4557L59.3424 53.4297L52.3581 56.9141H48.2852L43.0508 53.4297V38.9089L46.5404 40.0703L48.8685 41.2318H52.3581L66.3216 33.6797L79.7018 26.1328L84.9414 23.2266Z" fill="#00FFFF"/>
<path d="M13.3802 23.8125L16.2865 24.3906L21.526 27.2969V42.3958L18.0365 41.2344L13.9635 39.4896V87.1146L10.4688 85.9531L0.578125 80.1458L0 79.5625V32.5208L5.81771 28.4583L13.3802 23.8125Z" fill="#00FFFF"/>
</svg>
